# xmcd
#
# Track frame offsets: 
#        150
#        14966
#        33675
#        49550
#        71093
#        91501
#        104826
#        121831
#        133741
#        149615
#        170592
#        187033
#        203333
#        220323
#        235081
#        253224
#        271366
#        291918
#        307860
#        327138
#
# Disc length: 4680 seconds
#
# Revision: 3
# Processed by: cddbd v1.5.2PL0 Copyright (c) Steve Scherf et al.
# Submitted via: ExactAudioCopy v0.95b4
#
DISCID=35124614
DTITLE=Various Artist - Ministry Of Sound - Ibiza Annual 2006 [CD3 - The Beac
DTITLE=h)
DYEAR=2006
DGENRE=Electronic
TTITLE0=G-Club pts. Banda Sonora - Guitarra G (Afterlife Remix)
TTITLE1=Fish Go Deep feat. Tracey K - The Cure and The Cause (Dennis Fer
TTITLE1=rer Remix)
TTITLE2=Late Night Alumni - Heaven
TTITLE3=Afro Medusa - Pasilda
TTITLE4=Asle - Golden Sun (Seamus Haji and Paul Emanuel Remix)
TTITLE5=Kaskade - Steppin' Out
TTITLE6=Soldier Of Twilight - Believe
TTITLE7=Jean-Jacques Smoothie - 2 People (Mirwais Extended Mix)
TTITLE8=Mylo - In My Arms (King Unique Mix)
TTITLE9=Julien Jabre - Swimming Places
TTITLE10=Ill Beat Hustlers - All I Need (Fuzzy Sweet Remix)
TTITLE11=Jerry Ropero and Denis The Menace pts. Sabor feat. Jacqueline /
TTITLE11=Coraçao
TTITLE12=Ultra DJ's - Me and U
TTITLE13=UD Project - Summer Jam 2003 (DJ F.R.A.N.K.'s UK Edit)
TTITLE14=Migrants (The) by Play Paul - I Thought That
TTITLE15=Spiritchaser feat. Seyi - U-Control
TTITLE16=Eclipse - Makes Me Love You
TTITLE17=Class A - Streetlife
TTITLE18=Crazy P - Sun Science
TTITLE19=33Hz - Crazy All The Time (Just Crazy Remix)
EXTD=YEAR: 2006
EXTT0=
EXTT1=
EXTT2=
EXTT3=
EXTT4=
EXTT5=
EXTT6=
EXTT7=
EXTT8=
EXTT9=
EXTT10=
EXTT11=
EXTT12=
EXTT13=
EXTT14=
EXTT15=
EXTT16=
EXTT17=
EXTT18=
EXTT19=
PLAYORDER=
